<svg xmlns="http://www.w3.org/2000/svg" width="281.001" height="32" viewBox="0 0 281.001 32"><g transform="translate(-448 -505)"><path d="M133.733,4.406h7.192c4.569,0,7.628,2.926,7.628,8.066,0,5.112-2.747,8.522-8.131,8.522h-4.187V34.113h-2.5Zm2.5,14.386h3.936c3.785,0,5.808-2.051,5.808-6.334,0-3.4-1.778-5.842-5.4-5.842h-4.344Z" transform="translate(349.062 501.74)" fill="#fff"/><path d="M195.236,23.971l-2.41,10.142h-2.5l7.283-29.707h3.251l7.547,29.707h-2.69l-2.447-10.142Zm7.468-2.265c-1.951-7.888-3.148-12.713-3.519-14.906h-.094c-.423,2.532-1.736,8.2-3.328,14.906Z" transform="translate(307.196 501.74)" fill="#fff"/><path d="M273.4,34.113V4.406h3.273c8.971,22.084,10.114,24.759,10.5,25.987h.044c-.189-4.147-.263-8.655-.263-13.465V4.406h2.433V34.113h-3.121c-9.329-23.1-10.355-25.674-10.675-26.779h-.044c.218,3.735.255,8.778.255,14.136V34.113Z" transform="translate(245.737 501.74)" fill="#fff"/><path d="M353.244,6.678h-6.722V4.406h15.946V6.678h-6.722V34.113h-2.5Z" transform="translate(191.638 501.74)" fill="#fff"/><path d="M406.238,23.971l-2.41,10.142h-2.5l7.283-29.707h3.251l7.547,29.707h-2.69L414.27,23.971Zm7.468-2.265c-1.951-7.888-3.148-12.713-3.519-14.906h-.094c-.423,2.532-1.737,8.2-3.327,14.906Z" transform="translate(151.093 501.74)" fill="#fff"/><path d="M484.4,4.406h2.5V31.861h10.772l-.451,2.252H484.4Z" transform="translate(89.635 501.74)" fill="#fff"/><path d="M547.344,4.406h2.5V31.861h10.771l-.451,2.252H547.344Z" transform="translate(43.067 501.74)" fill="#fff"/><path d="M610.524,23.971l-2.41,10.142h-2.5L612.9,4.406h3.251l7.547,29.707H621l-2.447-10.142Zm7.468-2.265c-1.951-7.888-3.148-12.713-3.518-14.906h-.094c-.423,2.532-1.736,8.2-3.327,14.906Z" transform="translate(-0.04 501.74)" fill="#fff"/><path d="M683.484,34.721,677.1,5.228h7.183l1.932,11.464c.631,3.78,1.189,7.9,1.492,11.3h.195c.3-3.515,1.032-7.478,1.634-11.216l1.848-11.549h6.994l-6.446,29.493Z" transform="translate(-52.925 501.132)" fill="#fff"/><path d="M783.418,22.221h-8.93v7.029H784.6l-.791,5.472H767.844V5.228h15.98v5.544h-9.336v5.933h8.93Z" transform="translate(-120.061 501.132)" fill="#fff"/><path d="M849.735,22.653V34.721h-6.688V5.228h9.96c5.689,0,8.588,2.826,8.588,8.167,0,4.083-2.008,5.994-3.784,6.7,2.307,1.03,3.4,2.926,3.4,7.169v1.025a46.064,46.064,0,0,0,.316,6.434H854.95a30.725,30.725,0,0,1-.463-6.647V27.059c0-3.488-.7-4.407-3.293-4.407Zm.015-5.074h1.57c2.533,0,3.511-.916,3.511-3.8,0-2.431-.857-3.493-3.081-3.493h-2Z" transform="translate(-175.698 501.132)" fill="#fff"/><path d="M927.817,5.228h8.425c7.7,0,10.838,4.37,10.838,14.179,0,10.449-3.1,15.315-11.078,15.315h-8.185Zm6.806,24.344h1.258c3.153,0,4.078-2.225,4.078-10.273,0-6.735-.831-8.866-4.034-8.866h-1.3Z" transform="translate(-238.412 501.132)" fill="#fff"/><path d="M1031.183,22.221h-8.93v7.029h10.109l-.791,5.472h-15.963V5.228h15.98v5.544h-9.336v5.933h8.93Z" transform="translate(-303.361 501.132)" fill="#fff"/><path d="M27.629,15.691.536.049A.357.357,0,0,0,0,.358V31.642a.357.357,0,0,0,.536.309L27.629,16.309A.357.357,0,0,0,27.629,15.691Z" transform="translate(448 505)" fill="#fff"/></g></svg>