<svg xmlns="http://www.w3.org/2000/svg" width="201.97" height="23" viewBox="0 0 201.97 23"><g transform="translate(-448 -505)"><path d="M133.733,4.406H138.9c3.284,0,5.482,2.1,5.482,5.8,0,3.675-1.974,6.125-5.844,6.125h-3.009v9.429h-1.8Zm1.8,10.34h2.829c2.721,0,4.174-1.474,4.174-4.553,0-2.441-1.278-4.2-3.881-4.2h-3.122Z" transform="translate(339.276 501.418)" fill="#aaa"/><path d="M193.854,18.469l-1.732,7.289h-1.8l5.235-21.352H197.9l5.424,21.352h-1.934l-1.759-7.289Zm5.368-1.628c-1.4-5.67-2.263-9.137-2.529-10.714h-.067c-.3,1.82-1.248,5.893-2.392,10.714Z" transform="translate(293.268 501.418)" fill="#aaa"/><path d="M273.4,25.758V4.406h2.353c6.448,15.873,7.269,17.8,7.547,18.678h.032c-.136-2.981-.189-6.22-.189-9.678v-9h1.749V25.758h-2.243C275.939,9.153,275.2,7.3,274.972,6.511h-.031c.157,2.685.183,6.309.183,10.161v9.087Z" transform="translate(225.731 501.418)" fill="#aaa"/><path d="M351.354,6.039h-4.832V4.406h11.461V6.039h-4.831V25.758h-1.8Z" transform="translate(166.281 501.418)" fill="#aaa"/><path d="M404.856,18.469l-1.732,7.289h-1.8l5.235-21.352H408.9l5.424,21.352h-1.934l-1.759-7.289Zm5.368-1.628c-1.4-5.67-2.263-9.137-2.529-10.714h-.068c-.3,1.82-1.248,5.893-2.392,10.714Z" transform="translate(121.725 501.418)" fill="#aaa"/><path d="M484.4,4.406h1.8V24.14h7.742l-.324,1.618H484.4Z" transform="translate(54.188 501.418)" fill="#aaa"/><path d="M547.344,4.406h1.8V24.14h7.742l-.324,1.618h-9.216Z" transform="translate(3.014 501.418)" fill="#aaa"/><path d="M609.142,18.469l-1.732,7.289h-1.8l5.235-21.352h2.337l5.424,21.352h-1.934l-1.759-7.289Zm5.368-1.628c-1.4-5.67-2.263-9.137-2.529-10.714h-.068c-.3,1.82-1.248,5.893-2.392,10.714Z" transform="translate(-44.357 501.418)" fill="#aaa"/><path d="M681.687,26.426l-4.59-21.2h5.163l1.389,8.24c.453,2.717.855,5.675,1.073,8.123h.14c.218-2.527.742-5.374,1.174-8.062l1.328-8.3h5.027l-4.633,21.2Z" transform="translate(-102.474 500.75)" fill="#aaa"/><path d="M779.038,17.441H772.62v5.052h7.266l-.568,3.933H767.844V5.228H779.33V9.213h-6.71v4.264h6.419Z" transform="translate(-176.25 500.75)" fill="#aaa"/><path d="M847.854,17.752v8.674h-4.807V5.228h7.159c4.089,0,6.173,2.031,6.173,5.87,0,2.935-1.443,4.308-2.72,4.814,1.658.741,2.441,2.1,2.441,5.153V21.8a33.1,33.1,0,0,0,.227,4.625H851.6a22.084,22.084,0,0,1-.332-4.778v-.73c0-2.507-.505-3.167-2.367-3.167Zm.011-3.647h1.129c1.821,0,2.523-.658,2.523-2.73,0-1.747-.616-2.511-2.214-2.511h-1.438Z" transform="translate(-237.39 500.75)" fill="#aaa"/><path d="M927.817,5.228h6.055c5.533,0,7.79,3.141,7.79,10.191,0,7.51-2.228,11.007-7.962,11.007h-5.883Zm4.892,17.5h.9c2.266,0,2.931-1.6,2.931-7.384,0-4.841-.6-6.373-2.9-6.373h-.936Z" transform="translate(-306.307 500.75)" fill="#aaa"/><path d="M1026.8,17.441h-6.418v5.052h7.266l-.568,3.933h-11.473V5.228h11.486V9.213h-6.71v4.264h6.418Z" transform="translate(-377.681 500.75)" fill="#aaa"/><path d="M19.858,11.278.385.035A.257.257,0,0,0,0,.257V22.743a.257.257,0,0,0,.385.222L19.858,11.722A.257.257,0,0,0,19.858,11.278Z" transform="translate(448 505)" fill="#aaa"/></g></svg>