<svg xmlns="http://www.w3.org/2000/svg" xmlns:xlink="http://www.w3.org/1999/xlink" width="601" height="439.554" viewBox="0 0 601 439.554"><defs><filter id="a" x="0.197" y="0" width="593.373" height="353.824" filterUnits="userSpaceOnUse"><feOffset dy="3" input="SourceAlpha"/><feGaussianBlur stdDeviation="5.5" result="b"/><feFlood flood-opacity="0.4"/><feComposite operator="in" in2="b"/><feComposite in="SourceGraphic"/></filter><filter id="c" x="163.92" y="289.602" width="57.322" height="81.756" filterUnits="userSpaceOnUse"><feOffset dy="3" input="SourceAlpha"/><feGaussianBlur stdDeviation="5.5" result="d"/><feFlood flood-opacity="0.4"/><feComposite operator="in" in2="d"/><feComposite in="SourceGraphic"/></filter><filter id="e" x="188.085" y="289.602" width="62.675" height="81.756" filterUnits="userSpaceOnUse"><feOffset dy="3" input="SourceAlpha"/><feGaussianBlur stdDeviation="5.5" result="f"/><feFlood flood-opacity="0.4"/><feComposite operator="in" in2="f"/><feComposite in="SourceGraphic"/></filter><filter id="g" x="223.56" y="289.602" width="59.24" height="81.756" filterUnits="userSpaceOnUse"><feOffset dy="3" input="SourceAlpha"/><feGaussianBlur stdDeviation="5.5" result="h"/><feFlood flood-opacity="0.4"/><feComposite operator="in" in2="h"/><feComposite in="SourceGraphic"/></filter><filter id="i" x="254.787" y="289.602" width="59.171" height="81.756" filterUnits="userSpaceOnUse"><feOffset dy="3" input="SourceAlpha"/><feGaussianBlur stdDeviation="5.5" result="j"/><feFlood flood-opacity="0.4"/><feComposite operator="in" in2="j"/><feComposite in="SourceGraphic"/></filter><filter id="k" x="278.189" y="289.602" width="62.676" height="81.756" filterUnits="userSpaceOnUse"><feOffset dy="3" input="SourceAlpha"/><feGaussianBlur stdDeviation="5.5" result="l"/><feFlood flood-opacity="0.4"/><feComposite operator="in" in2="l"/><feComposite in="SourceGraphic"/></filter><filter id="m" x="313.663" y="289.602" width="54.784" height="81.756" filterUnits="userSpaceOnUse"><feOffset dy="3" input="SourceAlpha"/><feGaussianBlur stdDeviation="5.5" result="n"/><feFlood flood-opacity="0.4"/><feComposite operator="in" in2="n"/><feComposite in="SourceGraphic"/></filter><filter id="o" x="340.541" y="289.602" width="54.784" height="81.756" filterUnits="userSpaceOnUse"><feOffset dy="3" input="SourceAlpha"/><feGaussianBlur stdDeviation="5.5" result="p"/><feFlood flood-opacity="0.4"/><feComposite operator="in" in2="p"/><feComposite in="SourceGraphic"/></filter><filter id="q" x="365.424" y="289.602" width="62.676" height="81.756" filterUnits="userSpaceOnUse"><feOffset dy="3" input="SourceAlpha"/><feGaussianBlur stdDeviation="5.5" result="r"/><feFlood flood-opacity="0.4"/><feComposite operator="in" in2="r"/><feComposite in="SourceGraphic"/></filter><filter id="s" x="395.95" y="289.953" width="67.922" height="81.405" filterUnits="userSpaceOnUse"><feOffset dy="3" input="SourceAlpha"/><feGaussianBlur stdDeviation="5.5" result="t"/><feFlood flood-opacity="0.4"/><feComposite operator="in" in2="t"/><feComposite in="SourceGraphic"/></filter><filter id="u" x="434.701" y="289.953" width="60.497" height="81.405" filterUnits="userSpaceOnUse"><feOffset dy="3" input="SourceAlpha"/><feGaussianBlur stdDeviation="5.5" result="v"/><feFlood flood-opacity="0.4"/><feComposite operator="in" in2="v"/><feComposite in="SourceGraphic"/></filter><filter id="w" x="466.816" y="289.953" width="63.443" height="81.405" filterUnits="userSpaceOnUse"><feOffset dy="3" input="SourceAlpha"/><feGaussianBlur stdDeviation="5.5" result="x"/><feFlood flood-opacity="0.4"/><feComposite operator="in" in2="x"/><feComposite in="SourceGraphic"/></filter><filter id="y" x="503.015" y="289.953" width="64.615" height="81.405" filterUnits="userSpaceOnUse"><feOffset dy="3" input="SourceAlpha"/><feGaussianBlur stdDeviation="5.5" result="z"/><feFlood flood-opacity="0.4"/><feComposite operator="in" in2="z"/><feComposite in="SourceGraphic"/></filter><filter id="aa" x="540.504" y="289.953" width="60.497" height="81.405" filterUnits="userSpaceOnUse"><feOffset dy="3" input="SourceAlpha"/><feGaussianBlur stdDeviation="5.5" result="ab"/><feFlood flood-opacity="0.4"/><feComposite operator="in" in2="ab"/><feComposite in="SourceGraphic"/></filter><filter id="ac" x="106.812" y="288.083" width="78.142" height="84.794" filterUnits="userSpaceOnUse"><feOffset dy="3" input="SourceAlpha"/><feGaussianBlur stdDeviation="5.5" result="ad"/><feFlood flood-opacity="0.4"/><feComposite operator="in" in2="ad"/><feComposite in="SourceGraphic"/></filter><filter id="ae" x="0" y="348.554" width="594" height="91" filterUnits="userSpaceOnUse"><feOffset dy="3" input="SourceAlpha"/><feGaussianBlur stdDeviation="5.5" result="af"/><feFlood flood-opacity="0.4"/><feComposite operator="in" in2="af"/><feComposite in="SourceGraphic"/></filter></defs><g transform="translate(-659.5 -244.946)"><g transform="matrix(1, 0, 0, 1, 659.5, 244.95)" filter="url(#a)"><path d="M92.318,307.991H12.944V12.833H547.651V264.359a12.833,12.833,0,0,0,12.833,12.833h0V6.416A6.417,6.417,0,0,0,554.068,0H6.527A6.417,6.417,0,0,0,.111,6.416V314.408a6.417,6.417,0,0,0,6.416,6.416H92.318Z" transform="translate(16.59 13.5)" fill="#fff"/></g><g transform="matrix(1, 0, 0, 1, 659.5, 244.95)" filter="url(#c)"><path d="M207.719,367.228h11.8c7.5,0,12.519,4.8,12.519,13.238,0,8.391-4.508,13.987-13.345,13.987h-6.872v21.532h-4.1Zm4.1,23.61h6.46c6.213,0,9.532-3.366,9.532-10.4,0-5.573-2.919-9.589-8.862-9.589h-7.13Z" transform="translate(-27.3 -64.13)" fill="#fff"/></g><g transform="matrix(1, 0, 0, 1, 659.5, 244.95)" filter="url(#e)"><path d="M246.423,399.34l-3.956,16.645h-4.106l11.953-48.756h5.336l12.386,48.756h-4.415l-4.016-16.645Zm12.257-3.718c-3.2-12.946-5.167-20.865-5.774-24.464h-.155c-.695,4.155-2.85,13.455-5.461,24.464Z" transform="translate(-33.78 -64.13)" fill="#fff"/></g><g transform="matrix(1, 0, 0, 1, 659.5, 244.95)" filter="url(#g)"><path d="M283.345,415.984V367.228h5.373c14.723,36.245,16.6,40.635,17.232,42.651h.073c-.31-6.807-.431-14.2-.431-22.1V367.228h3.994v48.756h-5.123c-15.311-37.917-16.995-42.137-17.52-43.95h-.071c.358,6.131.418,14.407.418,23.2v20.749Z" transform="translate(-43.29 -64.13)" fill="#fff"/></g><g transform="matrix(1, 0, 0, 1, 659.5, 244.95)" filter="url(#i)"><path d="M333.975,370.957H322.941v-3.729h26.171v3.729H338.08v45.027h-4.106Z" transform="translate(-51.65 -64.13)" fill="#fff"/></g><g transform="matrix(1, 0, 0, 1, 659.5, 244.95)" filter="url(#k)"><path d="M360.678,399.34l-3.956,16.645h-4.106l11.954-48.756h5.335l12.387,48.756h-4.415l-4.016-16.645Zm12.257-3.718c-3.2-12.946-5.166-20.865-5.774-24.464h-.155c-.694,4.155-2.85,13.455-5.461,24.464Z" transform="translate(-57.93 -64.13)" fill="#fff"/></g><g transform="matrix(1, 0, 0, 1, 659.5, 244.95)" filter="url(#m)"><path d="M397.6,367.228h4.106v45.061h17.678l-.74,3.7H397.6Z" transform="translate(-67.44 -64.13)" fill="#fff"/></g><g transform="matrix(1, 0, 0, 1, 659.5, 244.95)" filter="url(#o)"><path d="M431.684,367.228h4.106v45.061h17.678l-.74,3.7H431.684Z" transform="translate(-74.64 -64.13)" fill="#fff"/></g><g transform="matrix(1, 0, 0, 1, 659.5, 244.95)" filter="url(#q)"><path d="M471.3,399.34l-3.956,16.645h-4.106l11.954-48.756h5.335l12.387,48.756H488.5l-4.016-16.645Zm12.257-3.718c-3.2-12.946-5.166-20.865-5.774-24.464h-.155c-.694,4.155-2.85,13.455-5.461,24.464Z" transform="translate(-81.31 -64.13)" fill="#fff"/></g><g transform="matrix(1, 0, 0, 1, 659.5, 244.95)" filter="url(#s)"><path d="M512.425,416.078l-10.481-48.405h11.789l3.172,18.816c1.035,6.2,1.952,12.958,2.449,18.547h.319c.5-5.77,1.693-12.272,2.681-18.408l3.033-18.955h11.478l-10.578,48.405Z" transform="translate(-89.49 -64.22)" fill="#fff"/></g><g transform="matrix(1, 0, 0, 1, 659.5, 244.95)" filter="url(#u)"><path d="M576.643,395.562H561.986V407.1h16.592l-1.3,8.981h-26.2V367.673H577.31v9.1H561.986v9.738h14.657Z" transform="translate(-99.88 -64.22)" fill="#fff"/></g><g transform="matrix(1, 0, 0, 1, 659.5, 244.95)" filter="url(#w)"><path d="M602.781,396.271v19.807H591.8V367.673h16.347c9.337,0,14.1,4.639,14.1,13.4,0,6.7-3.3,9.837-6.211,10.993,3.785,1.691,5.574,4.8,5.574,11.765v1.683a75.573,75.573,0,0,0,.519,10.56h-10.79c-.566-1.87-.759-6.176-.759-10.909V403.5c0-5.724-1.154-7.232-5.4-7.232Zm.024-8.329h2.577c4.158,0,5.762-1.5,5.762-6.234,0-3.989-1.407-5.732-5.057-5.732h-3.283Z" transform="translate(-108.49 -64.22)" fill="#fff"/></g><g transform="matrix(1, 0, 0, 1, 659.5, 244.95)" filter="url(#y)"><path d="M637.706,367.673h13.827c12.634,0,17.788,7.172,17.788,23.27,0,17.149-5.087,25.135-18.182,25.135H637.706Zm11.17,39.954h2.065c5.176,0,6.693-3.652,6.693-16.86,0-11.054-1.364-14.552-6.621-14.552h-2.137Z" transform="translate(-118.19 -64.22)" fill="#fff"/></g><g transform="matrix(1, 0, 0, 1, 659.5, 244.95)" filter="url(#aa)"><path d="M710.805,395.562H696.148V407.1h16.592l-1.3,8.981h-26.2V367.673h26.227v9.1H696.148v9.738h14.657Z" transform="translate(-128.24 -64.22)" fill="#fff"/></g><g transform="matrix(1, 0, 0, 1, 659.5, 244.95)" filter="url(#ac)"><path d="M179.9,390.262l-42.977-24.813a1.083,1.083,0,0,0-1.624.938v49.626a1.082,1.082,0,0,0,1.624.937L179.9,392.137A1.083,1.083,0,0,0,179.9,390.262Z" transform="translate(-11.99 -63.72)" fill="#fff"/></g><g transform="matrix(1, 0, 0, 1, 659.5, 244.95)" filter="url(#ae)"><text transform="translate(16.5 409.05)" fill="#fff" font-size="39" font-family="Oswald-Medium, Oswald" font-weight="500"><tspan x="0" y="0">Plataforma Digital de Cine Ambiental</tspan></text></g></g></svg>